<svg viewBox="0 0 25 25" height="25" width="25"><rect fill="none" x="0" y="0" width="25" height="25"></rect><rect x="5" y="5" rx="9.5" ry="9.5" width="15" height="15" stroke="#fff" fill="#fff" stroke-width="4" style="stroke-linejoin: round; stroke-miterlimit: 4;"></rect><rect x="5" y="5" width="15" height="15" rx="9.5" ry="9.5" fill="#fff"></rect><path fill="#000" transform="translate(5 5)" d="M14,7.5c0,3.5899-2.9101,6.5-6.5,6.5S1,11.0899,1,7.5S3.9101,1,7.5,1S14,3.9101,14,7.5z" stroke="#000" stroke-width="2" style="stroke-linejoin: round; stroke-miterlimit: 4;"></path><path fill="MEDIUMSPRINGGREEN" transform="translate(5 5)" d="M14,7.5c0,3.5899-2.9101,6.5-6.5,6.5S1,11.0899,1,7.5S3.9101,1,7.5,1S14,3.9101,14,7.5z"></path></svg>