<svg viewBox="0 0 21 21" height="21" width="21"><rect fill="none" x="0" y="0" width="21" height="21"></rect><rect x="1" y="1" width="19" height="19" rx="4" ry="4" fill="#fff"></rect><path fill="#000" transform="translate(3 3)" d="M13,14H2c-0.5523,0-1-0.4477-1-1V2c0-0.5523,0.4477-1,1-1h11c0.5523,0,1,0.4477,1,1v11C14,13.5523,13.5523,14,13,14z" stroke="#000" stroke-width="2" style="stroke-linejoin: round; stroke-miterlimit: 4;"></path><path fill="#fb00ff" transform="translate(3 3)" d="M13,14H2c-0.5523,0-1-0.4477-1-1V2c0-0.5523,0.4477-1,1-1h11c0.5523,0,1,0.4477,1,1v11C14,13.5523,13.5523,14,13,14z"></path></svg>